# xmcd CD database file
#
# Track frame offsets:
#	150
#	3298
#	29435
#	54240
#	72396
#	90503
#	102324
#	124706
#	143832
#	161022
#	176588
#	205244
#	234016
#	251980
#
# Disc length: 3878 seconds
#
# Revision: 0
# Processed by: cddbd v1.4PL0 Copyright (c) Steve Scherf et al.
# Submitted via: CDex 1.40Release
#
DISCID=b60f240e
DTITLE=Loose Gravel and the Quarry - Boulder in the Highway
DYEAR=1900
DGENRE=Blues
TTITLE0=Boulder in the Highway (intro)
TTITLE1=Spirits in the Wind - Willie K
TTITLE2=Don't you know - Steven Loose Gravel Luhtala
TTITLE3=Raining in Tacoma - Radio Version
TTITLE4=She won't putout
TTITLE5=I'm Gonna get it
TTITLE6=Hurtin for Cerrtain
TTITLE7=Who's been talkin
TTITLE8=Wh'd you leave
TTITLE9=Can't bear the hate
TTITLE10=Help me
TTITLE11=Unchain My Heart
TTITLE12=Boulder inthe Highway
TTITLE13=Raining in Tacoma (bonus)
EXTD=ID3G: 0
EXTT0=
EXTT1=
EXTT2=
EXTT3=
EXTT4=
EXTT5=
EXTT6=
EXTT7=
EXTT8=
EXTT9=
EXTT10=
EXTT11=
EXTT12=
EXTT13=
PLAYORDER=
